<?xml version="1.0" encoding="utf-8"?>
<!-- Generator: Adobe Illustrator 24.0.3, SVG Export Plug-In . SVG Version: 6.00 Build 0)  -->
<svg version="1.1" id="Ebene_1" xmlns="http://www.w3.org/2000/svg" xmlns:xlink="http://www.w3.org/1999/xlink" x="0px" y="0px"
	 width="32px" height="32px" viewBox="0 0 32 32" enable-background="new 0 0 32 32" xml:space="preserve">
<g>
	<path d="M26.857,0.417H6.275C5.131,0.418,4.2,1.35,4.199,2.493v27.011c-0.001,1.146,0.93,2.078,2.076,2.079h20.582
		c1.145-0.001,2.076-0.934,2.076-2.079V2.493C28.932,1.35,28,0.418,26.857,0.417z M27.354,29.504c0,0.273-0.223,0.496-0.496,0.496
		H6.275c-0.274,0-0.497-0.223-0.497-0.496V2.495c0-0.274,0.223-0.497,0.497-0.497l20.582-0.002c0.273,0,0.496,0.223,0.496,0.497
		V29.504z"/>
	<path d="M24.93,3.633L24.93,3.633h-1.925c-0.437,0-0.791,0.355-0.791,0.791s0.354,0.791,0.791,0.791h1.136v4.852H8.997V5.213H20.28
		c0.437,0,0.791-0.354,0.791-0.791s-0.354-0.791-0.791-0.791H8.205c-0.436,0-0.79,0.354-0.79,0.79v6.433
		c0,0.436,0.354,0.79,0.79,0.79H24.93c0.435,0,0.788-0.354,0.788-0.789V4.42c0-0.21-0.082-0.408-0.231-0.557
		C25.338,3.715,25.14,3.633,24.93,3.633z"/>
	<path d="M14.638,16.497h-1.782v-1.783c0-0.436-0.355-0.791-0.791-0.791s-0.791,0.355-0.791,0.791v1.783H9.492
		c-0.436,0-0.791,0.355-0.791,0.792c0,0.436,0.355,0.79,0.791,0.79h1.782v1.781c0,0.436,0.354,0.79,0.792,0.79
		c0.436,0,0.79-0.354,0.79-0.79v-1.781h1.782c0.436,0,0.791-0.354,0.791-0.79C15.429,16.852,15.074,16.497,14.638,16.497z"/>
	<path d="M23.642,16.497h-5.146c-0.437,0-0.791,0.355-0.791,0.792c0,0.436,0.354,0.79,0.791,0.79h5.146
		c0.437,0,0.791-0.354,0.791-0.79C24.433,16.852,24.078,16.497,23.642,16.497z"/>
	<path d="M23.473,23.073c0.145-0.154,0.22-0.354,0.213-0.564c-0.007-0.211-0.096-0.407-0.249-0.551
		c-0.316-0.298-0.817-0.281-1.113,0.032l-1.255,1.255l-1.255-1.255l-0.033-0.032c-0.316-0.298-0.816-0.281-1.115,0.036
		c-0.298,0.317-0.282,0.818,0.032,1.112l1.255,1.255l-1.261,1.262c-0.149,0.147-0.231,0.346-0.231,0.558
		c0,0.435,0.354,0.789,0.789,0.79c0.209,0,0.412-0.085,0.559-0.232l1.261-1.261l1.261,1.261c0.146,0.147,0.35,0.232,0.559,0.232
		s0.407-0.082,0.558-0.231c0.308-0.308,0.308-0.809,0-1.116l-1.261-1.262l1.249-1.25C23.447,23.101,23.46,23.087,23.473,23.073z"/>
	<path d="M13.895,21.773c-0.212,0-0.412,0.069-0.565,0.214l-3.643,3.636c-0.148,0.147-0.231,0.346-0.231,0.558
		c0,0.435,0.354,0.789,0.79,0.79c0.208,0,0.411-0.085,0.558-0.232l3.643-3.635c0.284-0.303,0.284-0.777,0-1.081
		C14.301,21.869,14.105,21.78,13.895,21.773z"/>
	<path d="M11.566,22.657c0-0.504-0.409-0.913-0.913-0.913s-0.913,0.409-0.913,0.913c0,0.503,0.409,0.912,0.913,0.912
		S11.566,23.16,11.566,22.657z"/>
	<path d="M13.241,25.05c-0.503,0-0.913,0.409-0.913,0.913c0,0.503,0.41,0.912,0.913,0.912s0.913-0.409,0.913-0.912
		C14.154,25.459,13.745,25.05,13.241,25.05z"/>
	<path d="M10.773,7.492c-0.436,0-0.791,0.355-0.791,0.791s0.355,0.791,0.791,0.791h2.578c0.436,0,0.791-0.355,0.791-0.791
		s-0.355-0.791-0.791-0.791H10.773z"/>
</g>
</svg>
