<?xml version="1.0" encoding="utf-8"?>
<!-- Generator: Adobe Illustrator 24.0.1, SVG Export Plug-In . SVG Version: 6.00 Build 0)  -->
<svg version="1.1" id="Ebene_1" xmlns="http://www.w3.org/2000/svg" xmlns:xlink="http://www.w3.org/1999/xlink" x="0px" y="0px"
	 width="32px" height="32px" viewBox="0 0 32 32" style="enable-background:new 0 0 32 32;" xml:space="preserve">
<style type="text/css">
	.st0{fill:#E2E9CA;}
	.st1{fill:#C6CEA5;}
</style>
<circle class="st0" cx="16" cy="16" r="15.3"/>
<path class="st1" d="M16,1.2c8.2,0,14.8,6.6,14.8,14.8S24.2,30.8,16,30.8S1.2,24.2,1.2,16S7.8,1.2,16,1.2 M16,0.2
	C7.3,0.2,0.2,7.3,0.2,16S7.3,31.8,16,31.8S31.8,24.7,31.8,16S24.7,0.2,16,0.2L16,0.2z"/>
<path id="Pfad_567" d="M13.2,16.8l1.8,3.9l0.5-1.4c-0.1-0.1-0.2-0.2-0.2-0.3L15,18.2c0-0.2,0.2-0.4,0.5-0.4h1.1
	c0.2,0,0.5,0.2,0.5,0.4L16.8,19c0,0.1-0.1,0.3-0.2,0.3l0.5,1.4l1.8-3.9c3.6,2.8,5.9-0.5,5.9,6.1c0,1.8-4.8,2.6-8.7,2.6l0,0
	c-4,0-8.7-0.9-8.7-2.6C7.2,16.3,9.6,19.5,13.2,16.8z"/>
<path id="Pfad_568" d="M20.5,11.8c-0.1,0.7-0.4,1.2-0.7,1.2c-0.7,1.9-2.1,3.6-3.8,3.6s-3.2-1.8-3.8-3.6c-0.3-0.1-0.5-0.6-0.7-1.2
	c-0.1-0.3-0.1-0.6,0-0.9h9.1C20.6,11.2,20.6,11.5,20.5,11.8z"/>
<path id="Pfad_569" d="M20.6,10h-9.2c-0.4,0-0.6-0.3-0.6-0.7c0-0.3,0.3-0.6,0.6-0.6h0.2c0-1.7,0.9-3.2,2.4-4l0.4,2.1
	c0,0.2,0.2,0.3,0.3,0.3c0,0,0,0,0.1,0c0.2,0,0.3-0.2,0.3-0.4l-0.4-2.4c0.2-0.3,0.4-0.4,0.8-0.4h1.3c0.3,0,0.6,0.2,0.8,0.4l-0.4,2.4
	c0,0.2,0.1,0.4,0.3,0.4c0,0,0,0,0.1,0c0.2,0,0.3-0.1,0.3-0.3l0.4-2.1c1.5,0.8,2.4,2.3,2.4,4h0.2c0.4,0,0.6,0.3,0.6,0.7
	C21.2,9.7,20.9,10,20.6,10L20.6,10z"/>
</svg>
