<?xml version="1.0" encoding="utf-8"?>
<!-- Generator: Adobe Illustrator 24.0.1, SVG Export Plug-In . SVG Version: 6.00 Build 0)  -->
<svg version="1.1" id="Ebene_1" xmlns="http://www.w3.org/2000/svg" xmlns:xlink="http://www.w3.org/1999/xlink" x="0px" y="0px"
	 width="32px" height="32px" viewBox="0 0 32 32" style="enable-background:new 0 0 32 32;" xml:space="preserve">
<style type="text/css">
	.st0{fill:#E2E9CA;}
	.st1{fill:#C6CEA5;}
</style>
<circle class="st0" cx="16" cy="16" r="15.3"/>
<path class="st1" d="M16,1.2c8.2,0,14.8,6.6,14.8,14.8S24.2,30.8,16,30.8S1.2,24.2,1.2,16S7.8,1.2,16,1.2 M16,0.2
	C7.3,0.2,0.2,7.3,0.2,16S7.3,31.8,16,31.8S31.8,24.7,31.8,16S24.7,0.2,16,0.2L16,0.2z"/>
<path d="M17.4,11.5c-0.1-0.3-0.3-0.6-0.6-0.8c-0.3-0.2-0.6-0.3-1-0.3c-0.3,0-0.5,0.1-0.8,0.2c-0.2,0.2-0.4,0.4-0.4,0.7
	c0,0.3,0.1,0.5,0.4,0.7c0.3,0.2,0.6,0.4,1,0.6c0.4,0.2,0.8,0.4,1.3,0.5c0.5,0.2,0.9,0.4,1.3,0.7s0.7,0.6,1,0.9
	c0.3,0.4,0.4,0.8,0.4,1.3c0,0.5-0.1,0.9-0.4,1.3c-0.3,0.4-0.6,0.7-1.1,0.9c0.3,0.2,0.5,0.6,0.7,0.9c0.2,0.4,0.3,0.8,0.3,1.2
	c0,0.6-0.1,1.1-0.4,1.5s-0.6,0.7-1,1s-0.9,0.4-1.4,0.6c-0.5,0.1-1,0.2-1.5,0.2c-0.4,0-0.9,0-1.3-0.1c-0.4-0.1-0.8-0.2-1.1-0.4
	s-0.7-0.4-1-0.7s-0.5-0.6-0.7-1.1l2.2-1.1c0,0.2,0.1,0.4,0.3,0.5c0.1,0.2,0.3,0.3,0.5,0.4c0.2,0.1,0.4,0.2,0.6,0.2
	c0.2,0,0.4,0.1,0.6,0.1c0.1,0,0.3,0,0.5,0c0.2,0,0.3-0.1,0.5-0.1c0.1-0.1,0.3-0.2,0.4-0.3c0.1-0.1,0.1-0.3,0.1-0.4
	c0-0.3-0.1-0.5-0.4-0.7c-0.3-0.2-0.6-0.4-1-0.5c-0.4-0.2-0.8-0.3-1.3-0.5c-0.5-0.2-0.9-0.4-1.3-0.7c-0.4-0.3-0.7-0.6-1-1
	c-0.3-0.4-0.4-0.8-0.4-1.4c0-0.6,0.1-1.1,0.4-1.5s0.6-0.8,1.1-1.1c-0.3-0.2-0.6-0.5-0.8-0.9c-0.2-0.3-0.3-0.7-0.3-1.1
	c0-0.5,0.1-1,0.3-1.3c0.2-0.4,0.5-0.7,0.9-0.9s0.8-0.4,1.2-0.5c0.4-0.1,0.9-0.2,1.3-0.2c0.4,0,0.8,0,1.1,0.1
	c0.4,0.1,0.8,0.2,1.1,0.3c0.4,0.2,0.7,0.3,1,0.6s0.5,0.5,0.7,0.9L17.4,11.5z M17.1,17.6c0.4-0.2,0.6-0.6,0.6-1.1
	c0-0.2,0-0.3-0.1-0.4c-0.1-0.1-0.2-0.2-0.3-0.3c-0.1-0.1-0.2-0.2-0.4-0.3c-0.1-0.1-0.3-0.1-0.4-0.2l-2-1c-0.4,0.2-0.6,0.6-0.6,1
	c0,0.2,0,0.4,0.1,0.5c0.1,0.1,0.2,0.3,0.3,0.4c0.1,0.1,0.3,0.2,0.4,0.3c0.2,0.1,0.3,0.2,0.5,0.2L17.1,17.6z"/>
</svg>
