<?xml version="1.0" encoding="utf-8"?>
<!-- Generator: Adobe Illustrator 24.0.3, SVG Export Plug-In . SVG Version: 6.00 Build 0)  -->
<svg version="1.1" id="Ebene_1" xmlns="http://www.w3.org/2000/svg" xmlns:xlink="http://www.w3.org/1999/xlink" x="0px" y="0px"
	 width="32px" height="32px" viewBox="0 0 32 32" enable-background="new 0 0 32 32" xml:space="preserve">
<g id="Gruppe_49198" transform="translate(-238.893 -151.839)">
	<path id="Pfad_3195" fill="#F00000" d="M254.893,152.282c-6.457,0.055-11.664,5.303-11.668,11.761
		c0.015,2.197,0.653,4.345,1.841,6.194l8.915,12.48c0.158,0.375,0.507,0.635,0.912,0.679l0,0c0.406-0.039,0.758-0.301,0.912-0.679
		l8.915-12.475c1.188-1.851,1.826-4.001,1.841-6.2C266.561,157.583,261.352,152.333,254.893,152.282z"/>
	<path id="Pfad_3196" fill="#FFFFFF" d="M260.512,163.949c0.003,3.102-2.51,5.618-5.611,5.621c-3.102,0.003-5.618-2.51-5.621-5.611
		c-0.003-3.102,2.51-5.618,5.611-5.621c0,0,0.001,0,0.001,0C257.993,158.338,260.507,160.849,260.512,163.949z"/>
</g>
</svg>
