<?xml version="1.0" encoding="utf-8"?>
<!-- Generator: Adobe Illustrator 23.0.2, SVG Export Plug-In . SVG Version: 6.00 Build 0)  -->
<svg version="1.1" id="Ebene_1" xmlns="http://www.w3.org/2000/svg" xmlns:xlink="http://www.w3.org/1999/xlink" x="0px" y="0px"
	 width="32px" height="32px" viewBox="0 0 32 32" enable-background="new 0 0 32 32" xml:space="preserve">
<path d="M19.814,7.985c-0.246-0.639-0.653-1.135-1.221-1.488c-0.569-0.352-1.188-0.529-1.857-0.529c-0.536,0-1.033,0.144-1.49,0.43
	c-0.458,0.287-0.686,0.728-0.686,1.323c0,0.551,0.256,1.014,0.769,1.389s1.16,0.727,1.941,1.058c0.78,0.331,1.617,0.666,2.509,1.008
	s1.729,0.755,2.51,1.24s1.427,1.075,1.94,1.769c0.513,0.695,0.77,1.538,0.77,2.53c0,0.927-0.267,1.775-0.804,2.546
	c-0.535,0.772-1.204,1.357-2.006,1.752c0.579,0.464,1.032,1.043,1.355,1.736c0.323,0.695,0.485,1.429,0.485,2.2
	c0,1.08-0.263,2.006-0.786,2.777c-0.525,0.771-1.188,1.401-1.991,1.885c-0.803,0.485-1.69,0.838-2.66,1.059
	s-1.902,0.331-2.795,0.331c-0.825,0-1.629-0.067-2.409-0.198c-0.781-0.133-1.506-0.364-2.175-0.695s-1.277-0.761-1.824-1.29
	C8.842,28.29,8.379,27.628,8,26.833l4.284-2.082c0.089,0.395,0.262,0.738,0.518,1.024c0.256,0.288,0.553,0.525,0.887,0.712
	c0.335,0.186,0.697,0.325,1.088,0.413c0.39,0.088,0.775,0.133,1.155,0.133c0.267,0,0.557-0.029,0.87-0.084
	c0.312-0.055,0.602-0.149,0.87-0.28c0.267-0.133,0.489-0.309,0.669-0.53c0.178-0.219,0.267-0.495,0.267-0.826
	c0-0.528-0.252-0.965-0.753-1.305c-0.503-0.342-1.121-0.673-1.858-0.992c-0.736-0.319-1.545-0.646-2.426-0.977
	c-0.881-0.331-1.69-0.744-2.426-1.239c-0.736-0.497-1.355-1.102-1.857-1.82c-0.502-0.716-0.753-1.604-0.753-2.662
	c0-1.124,0.251-2.077,0.753-2.86c0.502-0.782,1.222-1.46,2.158-2.033c-0.647-0.441-1.16-0.986-1.539-1.637
	c-0.379-0.65-0.568-1.372-0.568-2.166c0-0.97,0.217-1.807,0.652-2.513c0.435-0.706,0.998-1.29,1.69-1.753
	c0.691-0.463,1.461-0.804,2.309-1.025C14.838,2.111,15.685,2,16.533,2c0.715,0,1.439,0.055,2.175,0.165
	c0.736,0.111,1.445,0.309,2.125,0.595c0.68,0.287,1.299,0.662,1.857,1.124c0.559,0.463,1.004,1.037,1.339,1.72L19.814,7.985z
	 M19.245,19.659c0.759-0.441,1.137-1.113,1.137-2.017c0-0.309-0.066-0.59-0.2-0.844c-0.135-0.253-0.307-0.474-0.519-0.662
	c-0.212-0.187-0.447-0.352-0.703-0.496c-0.256-0.143-0.507-0.269-0.753-0.38l-3.881-1.819c-0.781,0.441-1.172,1.091-1.172,1.951
	c0,0.396,0.084,0.733,0.251,1.008c0.167,0.276,0.379,0.519,0.636,0.728c0.256,0.209,0.541,0.391,0.853,0.545
	c0.312,0.155,0.624,0.298,0.937,0.431L19.245,19.659z"/>
</svg>
