<?xml version="1.0" encoding="utf-8"?>
<!-- Generator: Adobe Illustrator 23.0.2, SVG Export Plug-In . SVG Version: 6.00 Build 0)  -->
<svg version="1.1" id="Ebene_1" xmlns="http://www.w3.org/2000/svg" xmlns:xlink="http://www.w3.org/1999/xlink" x="0px" y="0px"
	 width="32px" height="32px" viewBox="0 0 32 32" enable-background="new 0 0 32 32" xml:space="preserve">
<path id="Pfad_567" d="M11.818,19.076l2.73,5.863l0.7-2.137c-0.16-0.126-0.259-0.314-0.272-0.518l-0.515-1.231
	c0.015-0.372,0.328-0.662,0.7-0.648h1.675c0.372-0.014,0.685,0.276,0.7,0.648l-0.515,1.231c-0.013,0.204-0.112,0.392-0.272,0.518
	l0.7,2.137l2.73-5.863c5.281,4.109,8.821-0.668,8.821,9c0,2.646-7.051,3.92-12.974,3.92h-0.052C10.051,31.996,3,30.722,3,28.076
	C2.996,18.408,6.536,23.185,11.818,19.076z"/>
<path id="Pfad_568" d="M22.699,11.732c-0.175,1-0.618,1.763-1.025,1.821c-1.015,2.77-3.187,5.387-5.7,5.387s-4.694-2.623-5.708-5.4
	c-0.392-0.117-0.8-0.86-0.97-1.811c-0.086-0.447-0.094-0.904-0.026-1.354h13.459C22.796,10.826,22.786,11.285,22.699,11.732z"/>
<path id="Pfad_569" d="M22.852,9.072H9.142c-0.535-0.017-0.955-0.465-0.937-1c0.016-0.511,0.427-0.921,0.937-0.937h0.263
	c-0.002-2.488,1.396-4.767,3.615-5.892l0.546,3.1c0.043,0.242,0.254,0.419,0.5,0.418c0.03,0,0.059-0.003,0.088-0.008
	c0.275-0.049,0.458-0.312,0.409-0.587L13.94,0.621C14.182,0.234,14.605,0,15.061,0h1.871c0.457,0,0.882,0.236,1.123,0.625
	L17.431,4.17c-0.048,0.275,0.135,0.538,0.41,0.587c0.029,0.005,0.059,0.008,0.088,0.008c0.246,0.001,0.457-0.176,0.5-0.418
	l0.546-3.1c2.219,1.125,3.617,3.404,3.615,5.892h0.264c0.535,0.017,0.955,0.465,0.937,1c-0.016,0.511-0.427,0.921-0.937,0.937
	L22.852,9.072z"/>
</svg>
