<?xml version="1.0" encoding="utf-8"?>
<!-- Generator: Adobe Illustrator 24.0.3, SVG Export Plug-In . SVG Version: 6.00 Build 0)  -->
<svg version="1.1" id="Ebene_1" xmlns="http://www.w3.org/2000/svg" xmlns:xlink="http://www.w3.org/1999/xlink" x="0px" y="0px"
	 width="32px" height="32px" viewBox="0 0 32 32" enable-background="new 0 0 32 32" xml:space="preserve">
<path id="_073-location2-2" fill="#20292E" d="M16,1c-4.971,0-9,4.057-9,9.062C7,19.125,16,30,16,30s9-10.875,9-19.938
	C25,5.057,20.971,1,16,1z M16,15.614c-3.045,0-5.513-2.485-5.513-5.551S12.955,4.511,16,4.511s5.513,2.485,5.513,5.551l0,0
	C21.512,13.128,19.045,15.613,16,15.614z M12.513,10.062c0-1.94,1.562-3.512,3.488-3.512s3.488,1.572,3.488,3.512
	s-1.562,3.512-3.488,3.512l0,0C14.075,13.575,12.513,12.002,12.513,10.062z"/>
</svg>
