<?xml version="1.0" encoding="utf-8"?>
<!-- Generator: Adobe Illustrator 24.1.0, SVG Export Plug-In . SVG Version: 6.00 Build 0)  -->
<svg version="1.1" id="Ebene_1" xmlns="http://www.w3.org/2000/svg" xmlns:xlink="http://www.w3.org/1999/xlink" x="0px" y="0px"
	 width="54.592px" height="72.358px" viewBox="0 0 54.592 72.358" enable-background="new 0 0 54.592 72.358" xml:space="preserve">
<g id="Gruppe_49276">
	<path id="Pfad_3195" fill="#ACCA24" d="M27.295,0.59C12.522,0.716,0.61,12.726,0.606,27.499c0.034,5.027,1.494,9.94,4.212,14.169
		l20.393,28.546c0.361,0.858,1.16,1.454,2.085,1.555l0,0c0.929-0.093,1.732-0.691,2.086-1.555l20.393-28.535
		c2.717-4.233,4.177-9.149,4.212-14.179C53.99,12.722,42.073,0.707,27.295,0.59z"/>
</g>
<circle id="Ellipse_381" fill="#FFFFFF" cx="27.096" cy="27.032" r="21.377"/>
<g>
	<path fill="#ACCA24" d="M35.582,34.628c-0.488-0.684-1.586-1.992-2.638-3.214c-0.009-0.009-0.015-0.02-0.025-0.029
		c-1.13-1.312-2.199-2.519-2.39-2.734c-0.361-0.464-0.612-1.005-0.732-1.582v-5.493c0.758-0.001,1.372-0.615,1.373-1.373v-1.373
		c-0.001-0.758-0.615-1.372-1.373-1.373h-5.493c-0.758,0.001-1.372,0.615-1.373,1.373v1.373c0.001,0.758,0.615,1.372,1.373,1.373
		v5.493c-0.119,0.577-0.371,1.118-0.732,1.582c-0.364,0.417-4.029,4.551-5.053,5.977l-0.412,0.567
		c-0.754,0.779-1.23,1.785-1.351,2.862c-0.001,0.017-0.001,0.034-0.003,0.051c-0.091,1.779,1.279,3.295,3.058,3.385h14.492
		c0.016,0,0.031-0.001,0.048-0.003c1.777-0.118,3.122-1.656,3.004-3.433c-0.126-1.078-0.604-2.085-1.362-2.862L35.582,34.628z
		 M34.304,40.119H19.812c-0.005,0-0.012,0-0.018-0.001c-1.029-0.109-1.775-1.03-1.666-2.059c0-0.542,0.31-0.992,1.087-2.052
		l0.418-0.576c0.43-0.599,1.388-1.744,2.351-2.866h5.759c0.378,0,0.684-0.307,0.685-0.685c0-0.38-0.306-0.687-0.685-0.688h-4.57
		c0.812-0.93,1.438-1.636,1.454-1.653c0.015-0.018,0.031-0.038,0.045-0.057c0.542-0.701,0.889-1.533,1.009-2.41v-5.495h0.688
		c0.001,0,0.001,0,0.003,0c0.38,0,0.685-0.308,0.685-0.688c0-0.38-0.308-0.687-0.688-0.685h-1.373c0,0,0,0-0.001,0c0,0,0,0-0.001,0
		h-0.687V18.83h5.498v1.373h-0.687c-0.38,0-0.687,0.307-0.687,0.687v6.181c0.119,0.878,0.468,1.709,1.009,2.41
		c0.014,0.019,0.03,0.039,0.045,0.057c0.016,0.018,0.642,0.723,1.454,1.653H30.49c-0.001,0-0.001,0-0.003,0
		c-0.38,0.001-0.685,0.311-0.685,0.689c0,0.378,0.308,0.685,0.688,0.684h1.641c0.963,1.122,1.922,2.267,2.352,2.866l0.418,0.576
		c0.773,1.06,1.087,1.511,1.087,2.052c0,0.005,0.001,0.012,0.001,0.018C36.088,39.108,35.333,40.021,34.304,40.119z"/>
	<circle fill="#ACCA24" cx="30.335" cy="35.453" r="1.296"/>
	<circle fill="#ACCA24" cx="26.448" cy="38.044" r="1.296"/>
	<circle fill="#ACCA24" cx="27.096" cy="34.805" r="0.648"/>
	<path fill="#ACCA24" d="M37.243,21.936c0.139-0.4,0.225-0.82,0.2-1.255c-0.053-0.917-0.479-1.723-1.12-2.283
		c0.493-1.146,0.531-2.444,0.031-3.608c-0.934-2.177-3.35-3.236-5.562-2.551c-0.74-0.725-1.77-1.09-2.812-0.919
		c-1.791,0.295-3.003,1.985-2.709,3.775c0.054,0.332,0.341,0.575,0.678,0.575c0.038,0.001,0.074,0,0.111-0.005h0.001
		c0.373-0.062,0.626-0.415,0.564-0.789c-0.172-1.042,0.534-2.025,1.575-2.197c1.042-0.171,2.025,0.534,2.197,1.575
		c0.001,0.008,0.003,0.014,0.004,0.021c0.066,0.374,0.424,0.622,0.797,0.554c0.373-0.066,0.622-0.424,0.554-0.797
		c-0.033-0.204-0.1-0.4-0.17-0.593c0.759-0.133,1.549,0.008,2.221,0.416c1.345,0.817,1.871,2.464,1.33,3.885
		c-0.366-0.114-0.755-0.175-1.161-0.151c-0.38,0.023-0.669,0.347-0.646,0.727c0.023,0.378,0.347,0.669,0.727,0.645
		c0.373-0.022,0.745,0.069,1.068,0.259c0.237,0.139,0.443,0.325,0.601,0.549c0.61,0.862,0.407,2.053-0.455,2.664
		c-0.181,0.128-0.289,0.337-0.289,0.56c0,0.38,0.307,0.687,0.687,0.687c0.144,0,0.282-0.045,0.399-0.13
		c0.176-0.125,0.322-0.278,0.467-0.431c0.901,0.831,1.105,2.209,0.415,3.271c-0.771,1.187-2.357,1.525-3.543,0.754
		c-0.008-0.004-0.014-0.009-0.021-0.013c-0.321-0.201-0.745-0.102-0.946,0.219c-0.201,0.321-0.102,0.745,0.219,0.946
		c0.635,0.413,1.377,0.634,2.135,0.634h0.001c1.334,0.003,2.58-0.672,3.306-1.793C39.209,25.424,38.805,23.185,37.243,21.936z"/>
</g>
</svg>
