<?xml version="1.0" encoding="utf-8"?>
<!-- Generator: Adobe Illustrator 24.1.0, SVG Export Plug-In . SVG Version: 6.00 Build 0)  -->
<svg version="1.1" id="Ebene_1" xmlns="http://www.w3.org/2000/svg" xmlns:xlink="http://www.w3.org/1999/xlink" x="0px" y="0px"
	 width="54.592px" height="72.358px" viewBox="0 0 54.592 72.358" enable-background="new 0 0 54.592 72.358" xml:space="preserve">
<g id="Gruppe_49272">
	<g id="Pfad_3195">
		<path fill="#AC49BB" d="M27.295,1.038C12.708,1.161,0.946,13.02,0.942,27.608c0.033,4.963,1.476,9.815,4.159,13.99l20.136,28.186
			c0.356,0.848,1.144,1.435,2.058,1.535l0,0c0.918-0.091,1.71-0.682,2.06-1.535l20.136-28.176c2.682-4.18,4.125-9.034,4.159-14
			C53.654,13.016,41.887,1.153,27.295,1.038z"/>
	</g>
</g>
<g id="Ellipse_379">
	<circle fill="#FFFFFF" cx="27.098" cy="27.147" r="21.108"/>
</g>
<g>
	<path fill="#AC49BB" d="M41.029,39.055h-0.754c-0.492-0.764-0.759-1.63-0.796-2.51c0.028-0.091,0.038-0.188,0.028-0.286
		c-0.004-0.037-0.023-0.068-0.031-0.104c0.031-0.897,0.303-1.781,0.806-2.559l0.73,0c0.049,0.004,0.096,0.006,0.143,0
		c0.195-0.019,0.373-0.113,0.498-0.265c0.126-0.152,0.185-0.344,0.166-0.539c-0.018-0.196-0.112-0.374-0.264-0.5
		c-0.151-0.126-0.344-0.186-0.525-0.167h-0.753c-0.494-0.766-0.762-1.633-0.799-2.515c0.028-0.091,0.038-0.188,0.029-0.285
		c-0.004-0.038-0.022-0.07-0.031-0.106c0.031-0.897,0.303-1.78,0.806-2.558l0.763,0c0.353-0.033,0.633-0.312,0.666-0.665
		c0.038-0.405-0.26-0.766-0.681-0.805H17.913c-2.319,0-4.205,1.886-4.205,4.205c0,1.438,0.728,2.708,1.833,3.467
		c-1.105,0.759-1.833,2.029-1.833,3.467c0,2.318,1.887,4.205,4.205,4.205h21.958c0.001,0,0.003,0,0.004,0h1.155l0.159-0.008v-0.005
		c0.182-0.026,0.345-0.117,0.463-0.259c0.126-0.152,0.185-0.345,0.166-0.541C41.781,39.318,41.421,39.023,41.029,39.055z
		 M17.913,33.601l0.079-0.004l20.609-0.001c-0.294,0.638-0.479,1.31-0.556,1.997l-20.697,0.001c-0.045-0.004-0.09-0.004-0.137,0
		c-0.404,0.038-0.703,0.399-0.666,0.806c0.037,0.381,0.36,0.668,0.723,0.668c0.022,0,0.045-0.001,0.067-0.003h20.71
		c0.077,0.684,0.261,1.354,0.553,1.99H17.916c-1.467-0.03-2.641-1.204-2.672-2.671c-0.015-0.729,0.255-1.421,0.759-1.947
		c0.501-0.523,1.173-0.818,1.892-0.838C17.901,33.599,17.907,33.601,17.913,33.601z M17.351,28.659
		c-0.045-0.004-0.093-0.004-0.139,0c-0.404,0.039-0.703,0.399-0.666,0.805c0.037,0.381,0.36,0.669,0.724,0.669
		c0.022,0,0.044-0.001,0.066-0.004h20.71c0.077,0.686,0.262,1.358,0.555,1.996H17.923c-0.005-0.001-0.009-0.003-0.014-0.004
		c-0.038,0.002-0.076,0.002-0.114,0c-1.505-0.033-2.704-1.283-2.672-2.787c0.015-0.729,0.313-1.409,0.84-1.913
		c0.526-0.506,1.217-0.776,1.95-0.759l20.689-0.001c-0.294,0.638-0.479,1.311-0.556,1.998H17.351z"/>
	<path fill="#AC49BB" d="M15.398,17.392l4.089,1.168v5.635c0,0.407,0.331,0.738,0.738,0.738h0.001
		c0.404-0.003,0.731-0.335,0.731-0.738V18.98l6.578,1.879c0.065,0.019,0.134,0.028,0.202,0.028s0.136-0.009,0.202-0.027l6.573-1.878
		v5.213c0,0.407,0.331,0.738,0.738,0.738h0.002c0.404-0.003,0.732-0.335,0.732-0.738l-0.001-5.633l2.574-0.735v2.892
		c-0.679,0.288-1.156,0.961-1.156,1.743c0,1.044,0.85,1.893,1.894,1.893c1.042-0.001,1.892-0.85,1.894-1.893
		c0-0.784-0.479-1.458-1.16-1.745l-0.001-3.311l0.047-0.013c0.247-0.071,0.437-0.26,0.506-0.506
		c0.055-0.189,0.034-0.389-0.062-0.561c-0.095-0.173-0.253-0.298-0.443-0.353l-12.137-3.467c-0.134-0.038-0.273-0.038-0.405,0
		l-12.136,3.467c-0.246,0.071-0.436,0.26-0.506,0.506c-0.055,0.19-0.032,0.389,0.063,0.561
		C15.051,17.213,15.208,17.338,15.398,17.392z M18.287,16.682l9.45-2.7l9.45,2.7l-9.45,2.701L18.287,16.682z M39.297,22.043
		C39.297,22.043,39.297,22.043,39.297,22.043l0.046-0.001c0.209,0.025,0.372,0.203,0.37,0.419c0,0.23-0.188,0.418-0.418,0.418
		c-0.23,0-0.418-0.187-0.418-0.418c0-0.23,0.188-0.418,0.418-0.418H39.297z"/>
</g>
</svg>
