<?xml version="1.0" encoding="utf-8"?>
<!-- Generator: Adobe Illustrator 24.1.0, SVG Export Plug-In . SVG Version: 6.00 Build 0)  -->
<svg version="1.1" id="Ebene_1" xmlns="http://www.w3.org/2000/svg" xmlns:xlink="http://www.w3.org/1999/xlink" x="0px" y="0px"
	 width="54.592px" height="72.358px" viewBox="0 0 54.592 72.358" enable-background="new 0 0 54.592 72.358" xml:space="preserve">
<g id="Gruppe_49268">
	<g id="Pfad_3195">
		<path fill="#4BB2E7" d="M27.107,0.492C12.293,0.617,0.348,12.66,0.344,27.475c0.034,5.041,1.498,9.967,4.224,14.208l20.449,28.624
			c0.362,0.86,1.163,1.458,2.09,1.559l0,0c0.931-0.094,1.737-0.692,2.092-1.559l20.449-28.614c2.724-4.244,4.188-9.175,4.224-14.218
			C53.875,12.656,41.925,0.609,27.107,0.492z"/>
	</g>
</g>
<g id="Ellipse_377">
	<circle fill="#FFFFFF" cx="26.907" cy="27.006" r="21.436"/>
</g>
<g>
	<path fill="#4BB2E7" d="M36.234,13.203H18.798c-0.99,0.001-1.796,0.808-1.797,1.797v22.887c0.001,0.99,0.808,1.795,1.797,1.796
		h17.436c0.99-0.003,1.796-0.809,1.798-1.798V15C38.031,14.01,37.224,13.204,36.234,13.203z M36.616,15v22.885
		c-0.001,0.211-0.173,0.382-0.382,0.383H18.798c-0.21-0.001-0.382-0.173-0.383-0.382V15c0-0.211,0.172-0.382,0.383-0.382h17.435
		C36.444,14.619,36.615,14.79,36.616,15z"/>
	<path fill="#4BB2E7" d="M34.599,15.928h-1.63c-0.389,0-0.707,0.317-0.707,0.707s0.317,0.707,0.707,0.707h0.922v4.034H21.139v-4.034
		h9.522c0.391,0,0.708-0.317,0.708-0.707s-0.317-0.707-0.708-0.707H20.432c-0.389,0-0.707,0.317-0.707,0.707v5.448
		c0,0.389,0.317,0.707,0.707,0.707h14.17c0.388-0.002,0.704-0.318,0.704-0.707v-5.448C35.306,16.246,34.988,15.928,34.599,15.928z"
		/>
	<path fill="#4BB2E7" d="M25.882,26.826H24.41v-1.472c0-0.389-0.318-0.707-0.708-0.707c-0.389,0-0.707,0.317-0.707,0.707v1.472
		h-1.472c-0.389,0-0.707,0.318-0.707,0.708c0,0.389,0.317,0.707,0.707,0.707h1.472v1.472c0,0.389,0.317,0.707,0.707,0.707h0.001
		c0.389,0,0.707-0.317,0.707-0.707v-1.472h1.472c0.389,0,0.707-0.318,0.707-0.708C26.588,27.143,26.271,26.826,25.882,26.826z"/>
	<path fill="#4BB2E7" d="M33.51,26.826h-4.358c-0.389,0-0.707,0.318-0.707,0.708c0,0.389,0.317,0.707,0.707,0.707h4.358
		c0.389,0,0.707-0.318,0.707-0.708C34.217,27.143,33.9,26.826,33.51,26.826z"/>
	<path fill="#4BB2E7" d="M32.326,33.525l1.039-1.04c0.134-0.133,0.208-0.31,0.208-0.499s-0.074-0.367-0.207-0.501
		c-0.275-0.274-0.724-0.277-1.001,0l-1.04,1.04l-1.04-1.04c-0.277-0.277-0.724-0.274-1.001,0c-0.133,0.134-0.207,0.311-0.207,0.501
		s0.074,0.366,0.207,0.499l1.041,1.04l-1.041,1.041c-0.134,0.133-0.211,0.318-0.209,0.508c0.005,0.387,0.322,0.7,0.708,0.7
		c0.003,0,0.005,0,0.006,0c0.184-0.002,0.364-0.077,0.495-0.207l1.041-1.041l1.041,1.041c0.131,0.133,0.313,0.208,0.5,0.208
		c0.003,0,0.003,0,0.005,0c0.185-0.001,0.365-0.076,0.497-0.208c0.133-0.134,0.207-0.312,0.207-0.501
		c-0.001-0.188-0.075-0.366-0.208-0.499L32.326,33.525z"/>
	<path fill="#4BB2E7" d="M24.739,31.485l-3.082,3.081c-0.135,0.134-0.211,0.32-0.209,0.508c0.005,0.387,0.322,0.7,0.709,0.7
		c0.002,0,0.004,0,0.006,0c0.185-0.002,0.36-0.075,0.494-0.207l3.083-3.082c0.134-0.133,0.207-0.31,0.207-0.499
		s-0.074-0.367-0.207-0.501C25.464,31.211,25.016,31.209,24.739,31.485z"/>
	<circle fill="#4BB2E7" cx="22.508" cy="32.09" r="0.812"/>
	<circle fill="#4BB2E7" cx="24.897" cy="34.962" r="0.812"/>
	<path fill="#4BB2E7" d="M22.616,19.199c-0.389,0-0.707,0.317-0.707,0.707s0.317,0.707,0.707,0.707h2.18
		c0.389,0,0.707-0.317,0.707-0.707s-0.317-0.707-0.707-0.707H22.616z"/>
</g>
</svg>
