<?xml version="1.0" encoding="utf-8"?>
<!-- Generator: Adobe Illustrator 24.1.0, SVG Export Plug-In . SVG Version: 6.00 Build 0)  -->
<svg version="1.1" id="Ebene_1" xmlns="http://www.w3.org/2000/svg" xmlns:xlink="http://www.w3.org/1999/xlink" x="0px" y="0px"
	 width="42.066px" height="55.756px" viewBox="0 0 42.066 55.756" enable-background="new 0 0 42.066 55.756" xml:space="preserve">
<g id="Gruppe_49268">
	<g id="Pfad_3195">
		<path fill="#4BB2E7" d="M21.033,0.409C9.63,0.505,0.436,9.775,0.433,21.179c0.026,3.88,1.153,7.672,3.251,10.936l15.74,22.033
			c0.279,0.662,0.895,1.122,1.609,1.2l0,0c0.717-0.072,1.337-0.533,1.61-1.2l15.74-22.025c2.097-3.267,3.224-7.062,3.251-10.944
			C41.637,9.772,32.439,0.499,21.033,0.409z"/>
	</g>
</g>
<g id="Ellipse_377">
	<circle fill="#FFFFFF" cx="20.879" cy="20.818" r="16.5"/>
</g>
<g>
	<path fill="#4BB2E7" d="M28.059,10.193H14.637c-0.762,0.001-1.382,0.622-1.383,1.383v17.617c0.001,0.762,0.622,1.382,1.383,1.383
		h13.421c0.762-0.002,1.383-0.623,1.384-1.384V11.576C29.441,10.814,28.82,10.194,28.059,10.193z M28.353,11.576v17.615
		c-0.001,0.162-0.133,0.294-0.294,0.295H14.638c-0.162-0.001-0.294-0.133-0.295-0.294V11.576c0-0.162,0.132-0.294,0.294-0.294h13.42
		C28.22,11.283,28.352,11.415,28.353,11.576z"/>
	<path fill="#4BB2E7" d="M26.8,12.291h-1.255c-0.3,0-0.544,0.244-0.544,0.544s0.244,0.544,0.544,0.544h0.71v3.105h-9.816v-3.105
		h7.33c0.301,0,0.545-0.244,0.545-0.544s-0.244-0.544-0.545-0.544h-7.874c-0.3,0-0.544,0.244-0.544,0.544v4.194
		c0,0.3,0.244,0.544,0.544,0.544h10.907c0.299-0.001,0.542-0.245,0.542-0.544v-4.194C27.344,12.535,27.1,12.291,26.8,12.291z"/>
	<path fill="#4BB2E7" d="M20.09,20.679h-1.133v-1.133c0-0.3-0.245-0.544-0.545-0.544c-0.3,0-0.544,0.244-0.544,0.544v1.133h-1.133
		c-0.3,0-0.544,0.245-0.544,0.545c0,0.3,0.244,0.544,0.544,0.544h1.133v1.133c0,0.3,0.244,0.544,0.544,0.544h0.001
		c0.3,0,0.544-0.244,0.544-0.544v-1.133h1.133c0.3,0,0.544-0.245,0.544-0.545C20.634,20.923,20.39,20.679,20.09,20.679z"/>
	<path fill="#4BB2E7" d="M25.962,20.679h-3.354c-0.3,0-0.544,0.245-0.544,0.545c0,0.3,0.244,0.544,0.544,0.544h3.354
		c0.3,0,0.544-0.245,0.544-0.545C26.506,20.923,26.262,20.679,25.962,20.679z"/>
	<path fill="#4BB2E7" d="M25.05,25.836l0.8-0.8c0.104-0.103,0.16-0.239,0.16-0.384s-0.057-0.282-0.159-0.385
		c-0.212-0.211-0.558-0.213-0.771,0l-0.8,0.8l-0.8-0.8c-0.213-0.213-0.558-0.211-0.771,0c-0.103,0.103-0.159,0.24-0.159,0.385
		s0.057,0.282,0.159,0.384l0.801,0.801l-0.801,0.801c-0.104,0.103-0.162,0.245-0.161,0.391c0.004,0.298,0.248,0.539,0.545,0.539
		c0.002,0,0.004,0,0.005,0c0.142-0.001,0.28-0.06,0.381-0.16l0.801-0.802l0.801,0.801c0.101,0.102,0.241,0.16,0.385,0.16
		c0.002,0,0.002,0,0.004,0c0.143-0.001,0.281-0.059,0.383-0.16c0.103-0.103,0.159-0.24,0.159-0.385
		c-0.001-0.145-0.058-0.282-0.16-0.384L25.05,25.836z"/>
	<path fill="#4BB2E7" d="M19.21,24.266l-2.373,2.372c-0.104,0.104-0.163,0.246-0.161,0.391c0.004,0.298,0.248,0.539,0.545,0.539
		c0.001,0,0.003,0,0.004,0c0.143-0.001,0.277-0.058,0.38-0.16l2.373-2.372c0.103-0.103,0.16-0.239,0.16-0.384
		s-0.057-0.282-0.16-0.385C19.769,24.055,19.423,24.053,19.21,24.266z"/>
	<circle fill="#4BB2E7" cx="17.493" cy="24.731" r="0.625"/>
	<circle fill="#4BB2E7" cx="19.332" cy="26.942" r="0.625"/>
	<path fill="#4BB2E7" d="M17.576,14.808c-0.3,0-0.544,0.244-0.544,0.544s0.244,0.544,0.544,0.544h1.678
		c0.3,0,0.544-0.244,0.544-0.544s-0.244-0.544-0.544-0.544H17.576z"/>
</g>
</svg>
