<?xml version="1.0" encoding="utf-8"?>
<!-- Generator: Adobe Illustrator 24.1.0, SVG Export Plug-In . SVG Version: 6.00 Build 0)  -->
<svg version="1.1" id="Ebene_1" xmlns="http://www.w3.org/2000/svg" xmlns:xlink="http://www.w3.org/1999/xlink" x="0px" y="0px"
	 width="42.066px" height="55.756px" viewBox="0 0 42.066 55.756" enable-background="new 0 0 42.066 55.756" xml:space="preserve">
<g id="Gruppe_49272">
	<g id="Pfad_3195">
		<path fill="#AC49BB" d="M21.033,0.409C9.63,0.505,0.436,9.775,0.433,21.179c0.026,3.88,1.153,7.672,3.251,10.936l15.74,22.033
			c0.279,0.662,0.895,1.122,1.609,1.2l0,0c0.717-0.072,1.337-0.533,1.61-1.2l15.74-22.025c2.097-3.267,3.224-7.062,3.251-10.944
			C41.637,9.772,32.439,0.499,21.033,0.409z"/>
	</g>
</g>
<g id="Ellipse_379">
	<circle fill="#FFFFFF" cx="20.879" cy="20.818" r="16.5"/>
</g>
<g>
	<path fill="#AC49BB" d="M31.769,30.127H31.18c-0.386-0.6-0.596-1.279-0.624-1.969c0.02-0.068,0.03-0.141,0.023-0.216
		c-0.003-0.029-0.018-0.053-0.025-0.081c0.024-0.702,0.236-1.393,0.63-2.001h0.572c0.037,0.004,0.074,0.004,0.109,0
		c0.153-0.014,0.293-0.087,0.391-0.206c0.099-0.118,0.145-0.268,0.13-0.422c-0.029-0.316-0.315-0.548-0.617-0.521h-0.587
		c-0.388-0.601-0.598-1.281-0.626-1.973c0.02-0.068,0.03-0.141,0.023-0.216c-0.003-0.029-0.018-0.054-0.025-0.081
		c0.024-0.702,0.236-1.393,0.63-2.001h0.596c0.276-0.027,0.495-0.246,0.52-0.521c0.016-0.153-0.03-0.303-0.129-0.421
		c-0.098-0.119-0.237-0.193-0.402-0.208H13.699c-1.812,0-3.287,1.475-3.287,3.287c0,1.124,0.569,2.117,1.433,2.71
		c-0.864,0.593-1.433,1.586-1.433,2.711c0,1.812,1.475,3.287,3.287,3.287h17.167h0.001h0.901l0.125-0.007v-0.004
		c0.143-0.021,0.271-0.092,0.362-0.203c0.099-0.118,0.145-0.269,0.13-0.422c-0.014-0.153-0.088-0.293-0.206-0.391
		C32.061,30.159,31.913,30.109,31.769,30.127z M13.261,22.001c-0.037-0.004-0.075-0.004-0.109,0
		c-0.154,0.014-0.292,0.087-0.391,0.207c-0.098,0.119-0.145,0.269-0.13,0.422c0.029,0.299,0.282,0.523,0.567,0.523
		c0.017,0,0.034-0.001,0.051-0.002h16.189c0.06,0.537,0.204,1.062,0.433,1.56H13.709c-0.005-0.001-0.009-0.003-0.014-0.004
		c-0.029,0.001-0.058,0.001-0.089,0c-1.176-0.024-2.113-1.001-2.088-2.179c0.024-1.161,0.977-2.089,2.136-2.089
		c0.015,0,0.03,0,0.045,0l16.172,0c-0.229,0.499-0.374,1.024-0.435,1.561L13.261,22.001z M13.699,25.863l0.054-0.003l16.119,0
		c-0.23,0.499-0.374,1.024-0.435,1.561l-16.176,0c-0.037-0.004-0.075-0.004-0.109,0c-0.154,0.014-0.292,0.087-0.391,0.207
		c-0.098,0.119-0.145,0.269-0.13,0.422c0.029,0.299,0.282,0.523,0.567,0.523c0.017,0,0.034-0.001,0.051-0.002h16.189
		c0.06,0.535,0.204,1.059,0.432,1.556H13.702c-1.147-0.025-2.065-0.942-2.089-2.088c-0.024-1.172,0.906-2.145,2.073-2.177
		C13.691,25.861,13.695,25.863,13.699,25.863z"/>
	<path fill="#AC49BB" d="M11.733,13.193l3.196,0.913v4.405c0,0.318,0.259,0.577,0.577,0.577h0.001h0
		c0.316-0.004,0.572-0.263,0.571-0.577l0-4.077l5.144,1.47c0.051,0.014,0.104,0.021,0.156,0.021h0.001h0.001
		c0.055-0.001,0.104-0.008,0.155-0.021l5.138-1.468v4.075c0,0.318,0.259,0.577,0.577,0.577h0.001h0.001
		c0.315-0.004,0.571-0.263,0.57-0.577l-0.001-4.403l2.014-0.575v2.261c-0.53,0.225-0.903,0.751-0.903,1.363
		c0,0.816,0.664,1.48,1.48,1.48c0.814-0.002,1.479-0.666,1.479-1.48c0-0.613-0.375-1.14-0.907-1.364l-0.001-2.587l0.039-0.011
		c0.192-0.055,0.341-0.203,0.396-0.395c0.043-0.148,0.025-0.304-0.05-0.439s-0.197-0.232-0.346-0.275l-9.487-2.71
		c-0.104-0.029-0.213-0.029-0.316,0l-9.487,2.71c-0.192,0.055-0.34,0.203-0.396,0.396c-0.042,0.148-0.025,0.304,0.05,0.438
		C11.461,13.053,11.584,13.15,11.733,13.193z M13.991,12.638l7.387-2.111l7.387,2.111l-7.387,2.111L13.991,12.638z M30.414,16.829
		L30.414,16.829c0.001,0,0.001,0,0.001,0l0.036-0.001c0.163,0.019,0.29,0.158,0.289,0.328c0,0.18-0.146,0.327-0.327,0.327
		s-0.327-0.147-0.327-0.327S30.232,16.829,30.414,16.829L30.414,16.829z"/>
</g>
</svg>
