<?xml version="1.0" encoding="utf-8"?>
<!-- Generator: Adobe Illustrator 24.1.0, SVG Export Plug-In . SVG Version: 6.00 Build 0)  -->
<svg version="1.1" id="Ebene_1" xmlns="http://www.w3.org/2000/svg" xmlns:xlink="http://www.w3.org/1999/xlink" x="0px" y="0px"
	 width="42.066px" height="55.756px" viewBox="0 0 42.066 55.756" enable-background="new 0 0 42.066 55.756" xml:space="preserve">
<g id="Gruppe_49276">
	<path id="Pfad_3195" fill="#ACCA24" d="M21.076,0.272C9.673,0.369,0.479,9.639,0.476,21.042c0.026,3.88,1.153,7.672,3.251,10.936
		l15.74,22.033c0.279,0.662,0.895,1.122,1.609,1.2l0,0c0.717-0.072,1.337-0.533,1.61-1.2l15.74-22.025
		c2.097-3.267,3.224-7.062,3.251-10.944C41.68,9.636,32.482,0.362,21.076,0.272z"/>
</g>
<circle id="Ellipse_381" fill="#FFFFFF" cx="20.922" cy="20.681" r="16.5"/>
<g>
	<path fill="#ACCA24" d="M27.472,26.544c-0.377-0.528-1.224-1.537-2.036-2.481c-0.007-0.007-0.012-0.015-0.019-0.022
		c-0.872-1.013-1.697-1.944-1.845-2.11c-0.279-0.358-0.472-0.776-0.565-1.221v-4.24c0.585-0.001,1.059-0.475,1.06-1.06v-1.06
		c-0.001-0.585-0.475-1.059-1.06-1.06h-4.24c-0.585,0.001-1.059,0.475-1.06,1.06v1.06c0.001,0.585,0.475,1.059,1.06,1.06v4.24
		c-0.092,0.445-0.286,0.863-0.565,1.221c-0.281,0.322-3.11,3.513-3.9,4.613l-0.318,0.438c-0.582,0.601-0.949,1.378-1.043,2.209
		c-0.001,0.013-0.001,0.026-0.002,0.039c-0.07,1.373,0.987,2.543,2.36,2.613h11.186c0.012,0,0.024-0.001,0.037-0.002
		c1.372-0.091,2.41-1.278,2.319-2.65c-0.097-0.832-0.466-1.609-1.051-2.209L27.472,26.544z M26.486,30.783H15.3
		c-0.004,0-0.009,0-0.014-0.001c-0.794-0.084-1.37-0.795-1.286-1.589c0-0.418,0.239-0.766,0.839-1.584l0.323-0.445
		c0.332-0.462,1.072-1.346,1.815-2.212h4.445c0.292,0,0.528-0.237,0.529-0.529c0-0.293-0.236-0.53-0.529-0.531h-3.527
		c0.626-0.718,1.11-1.263,1.122-1.276c0.012-0.014,0.024-0.029,0.035-0.044c0.418-0.541,0.686-1.183,0.779-1.86v-4.241h0.531
		c0.001,0,0.001,0,0.002,0c0.293,0,0.529-0.238,0.529-0.531c0-0.293-0.238-0.53-0.531-0.529h-1.06c0,0,0,0,0,0s0,0,0,0h-0.53v-1.06
		h4.244v1.06h-0.53c-0.293,0-0.53,0.237-0.53,0.53v4.771c0.092,0.678,0.361,1.319,0.779,1.86c0.011,0.015,0.023,0.03,0.035,0.044
		c0.012,0.014,0.496,0.558,1.122,1.276h-0.349c-0.001,0-0.001,0-0.002,0c-0.293,0.001-0.529,0.24-0.529,0.532
		c0,0.292,0.238,0.529,0.531,0.528h1.267c0.743,0.866,1.483,1.75,1.815,2.212l0.323,0.445c0.597,0.818,0.839,1.166,0.839,1.584
		c0,0.004,0.001,0.009,0.001,0.014C27.863,30.002,27.28,30.707,26.486,30.783z"/>
	<circle fill="#ACCA24" cx="23.422" cy="27.181" r="1"/>
	<circle fill="#ACCA24" cx="20.422" cy="29.181" r="1"/>
	<circle fill="#ACCA24" cx="20.922" cy="26.681" r="0.5"/>
	<path fill="#ACCA24" d="M28.754,16.748c0.107-0.309,0.173-0.633,0.154-0.969c-0.041-0.708-0.37-1.33-0.864-1.762
		c0.381-0.885,0.41-1.887,0.024-2.785c-0.721-1.68-2.585-2.498-4.293-1.969c-0.571-0.559-1.367-0.841-2.171-0.709
		c-1.382,0.228-2.318,1.532-2.091,2.914c0.042,0.256,0.263,0.444,0.523,0.444c0.029,0.001,0.057,0,0.086-0.004h0.001
		c0.288-0.048,0.483-0.32,0.435-0.609c-0.133-0.804,0.412-1.563,1.216-1.696c0.804-0.132,1.563,0.412,1.696,1.216
		c0.001,0.006,0.002,0.011,0.003,0.016c0.051,0.289,0.327,0.48,0.615,0.428c0.288-0.051,0.48-0.327,0.428-0.615
		c-0.026-0.158-0.077-0.309-0.131-0.458c0.586-0.102,1.195,0.006,1.714,0.321c1.038,0.631,1.444,1.902,1.027,2.999
		c-0.283-0.088-0.583-0.135-0.896-0.117c-0.293,0.018-0.516,0.268-0.499,0.561c0.018,0.292,0.268,0.516,0.561,0.498
		c0.288-0.017,0.575,0.053,0.824,0.2c0.183,0.107,0.342,0.251,0.464,0.424c0.471,0.665,0.314,1.585-0.351,2.056
		c-0.14,0.099-0.223,0.26-0.223,0.432c0,0.293,0.237,0.53,0.53,0.53c0.111,0,0.218-0.035,0.308-0.1
		c0.136-0.096,0.249-0.214,0.361-0.333c0.695,0.641,0.853,1.705,0.32,2.525c-0.595,0.916-1.819,1.177-2.735,0.582
		c-0.006-0.003-0.011-0.007-0.016-0.01c-0.248-0.155-0.575-0.079-0.73,0.169c-0.155,0.248-0.079,0.575,0.169,0.73
		c0.49,0.319,1.063,0.489,1.648,0.489h0.001c1.03,0.002,1.991-0.519,2.552-1.384C30.272,19.44,29.96,17.712,28.754,16.748z"/>
</g>
</svg>
