<?xml version="1.0" encoding="utf-8"?>
<!-- Generator: Adobe Illustrator 24.0.3, SVG Export Plug-In . SVG Version: 6.00 Build 0)  -->
<svg version="1.1" id="Ebene_1" xmlns="http://www.w3.org/2000/svg" xmlns:xlink="http://www.w3.org/1999/xlink" x="0px" y="0px"
	 width="32px" height="32px" viewBox="0 0 32 32" enable-background="new 0 0 32 32" xml:space="preserve">
<g>
	<path d="M24.088,24.492c-1.057-1.468-4.829-5.727-5.212-6.156c-0.372-0.479-0.63-1.036-0.753-1.63v-5.659
		c0.781-0.001,1.413-0.634,1.415-1.415V8.219c-0.001-0.781-0.634-1.413-1.415-1.415h-5.659c-0.781,0.001-1.414,0.634-1.415,1.416
		v1.415c0.001,0.781,0.634,1.413,1.415,1.415v5.659c-0.123,0.594-0.381,1.151-0.753,1.629c-0.382,0.429-4.157,4.688-5.212,6.156
		l-0.425,0.585c-0.838,1.149-1.392,1.909-1.392,2.948c-0.001,0.016-0.002,0.031-0.003,0.047c-0.094,1.833,1.316,3.395,3.149,3.49
		h14.925c0.017-0.001,0.035-0.002,0.052-0.003c1.832-0.12,3.219-1.703,3.098-3.534c0-1.041-0.554-1.799-1.392-2.948L24.088,24.492z
		 M22.754,30.147H7.826c-0.006-0.001-0.012-0.001-0.018-0.002c-1.059-0.112-1.826-1.061-1.714-2.12c0-0.556,0.323-1.022,1.12-2.113
		l0.431-0.594c0.443-0.617,1.43-1.796,2.422-2.952h5.934c0,0,0.001,0,0.001,0c0.391,0,0.707-0.317,0.707-0.708
		c0-0.391-0.317-0.707-0.708-0.707h-4.709c0.836-0.958,1.481-1.685,1.498-1.703c0.017-0.019,0.032-0.039,0.047-0.059
		c0.557-0.722,0.915-1.578,1.039-2.482v-5.659h0.71c0,0,0.001,0,0.001,0c0.391,0,0.707-0.317,0.707-0.708
		c0-0.391-0.317-0.707-0.708-0.707h-1.415c-0.001,0-0.001,0-0.002,0c-0.001,0-0.001,0-0.002,0h-0.707V8.219h5.659v1.415h-0.707
		c-0.391,0-0.707,0.317-0.707,0.707v6.367c0.123,0.904,0.481,1.76,1.039,2.482c0.015,0.021,0.03,0.04,0.047,0.059
		c0.016,0.018,0.663,0.745,1.5,1.703h-0.46c0,0-0.001,0-0.001,0c-0.391,0-0.707,0.317-0.707,0.708c0,0.391,0.317,0.707,0.708,0.707
		h1.685c0.992,1.156,1.978,2.334,2.419,2.952l0.431,0.594c0.797,1.092,1.12,1.556,1.12,2.113c0.001,0.006,0.001,0.012,0.002,0.018
		C24.59,29.103,23.814,30.045,22.754,30.147z"/>
	<circle cx="15.119" cy="25.047" r="0.519"/>
	<circle cx="18.642" cy="27.004" r="0.988"/>
	<path d="M14.302,27.541c-0.546,0-0.988,0.443-0.988,0.988c0,0.546,0.442,0.988,0.988,0.988c0.546,0,0.988-0.443,0.988-0.988
		C15.29,27.984,14.848,27.541,14.302,27.541z"/>
	<path d="M25.781,11.414c0.141-0.409,0.228-0.838,0.203-1.284c-0.053-0.933-0.48-1.756-1.126-2.333
		c0.513-1.183,0.527-2.534,0.012-3.737c-0.956-2.232-3.425-3.324-5.696-2.64c-0.763-0.756-1.849-1.115-2.929-0.937
		C14.4,0.786,13.15,2.527,13.454,4.372c0.056,0.342,0.352,0.592,0.698,0.592c0.039,0,0.077-0.003,0.115-0.009
		c0.001,0,0.002,0,0.002,0c0.385-0.064,0.645-0.428,0.58-0.813c-0.02-0.086-0.034-0.172-0.043-0.26
		c-0.105-1.085,0.689-2.049,1.774-2.155c0.67-0.065,1.292,0.214,1.696,0.691c0.008,0.03,0.448,0.703,0.458,1.082
		c0.001,0.006,0.002,0.012,0.003,0.018c0.068,0.385,0.435,0.641,0.82,0.573c0.385-0.068,0.641-0.435,0.573-0.82
		c-0.034-0.209-0.103-0.408-0.175-0.606c0.782-0.137,1.596,0.008,2.289,0.429c1.388,0.843,1.928,2.543,1.366,4.007
		c-0.378-0.118-0.78-0.182-1.2-0.158c-0.39,0.023-0.688,0.358-0.665,0.748s0.358,0.688,0.748,0.665
		c0.385-0.024,0.768,0.068,1.1,0.263c0.241,0.141,0.449,0.331,0.611,0.557c0.633,0.887,0.427,2.119-0.46,2.753
		c-0.188,0.134-0.299,0.351-0.297,0.582c0.003,0.391,0.322,0.705,0.713,0.702c0.145-0.001,0.286-0.046,0.404-0.13
		c0.183-0.13,0.336-0.289,0.487-0.449c0.928,0.856,1.138,2.275,0.428,3.369c-0.793,1.222-2.427,1.57-3.65,0.777
		c-0.328-0.213-0.766-0.119-0.978,0.209c-0.213,0.328-0.119,0.766,0.209,0.978c0.655,0.426,1.419,0.653,2.2,0.652l0-0.001
		c1.379,0.005,2.666-0.693,3.415-1.851C27.817,15.002,27.394,12.695,25.781,11.414z"/>
</g>
</svg>
