<?xml version="1.0" encoding="utf-8"?>
<!-- Generator: Adobe Illustrator 24.0.3, SVG Export Plug-In . SVG Version: 6.00 Build 0)  -->
<svg version="1.1" id="Ebene_1" xmlns="http://www.w3.org/2000/svg" xmlns:xlink="http://www.w3.org/1999/xlink" x="0px" y="0px"
	 width="32px" height="32px" viewBox="0 0 32 32" enable-background="new 0 0 32 32" xml:space="preserve">
<g>
	<path d="M29.984,23.896h0.86c0.214-0.002,0.414-0.086,0.564-0.237s0.233-0.353,0.232-0.565c-0.002-0.44-0.36-0.799-0.801-0.799
		c0,0-0.001,0-0.002,0h-0.853c-1.207-1.862-1.207-4.28-0.001-6.141h0.859c0.214-0.001,0.414-0.085,0.565-0.237
		c0.15-0.151,0.232-0.353,0.231-0.566s-0.085-0.414-0.236-0.564c-0.151-0.15-0.352-0.232-0.563-0.232c-0.001,0-0.002,0-0.003,0
		H5.031c-2.576,0-4.671,2.095-4.671,4.671c0,1.609,0.818,3.031,2.059,3.871c-1.241,0.841-2.059,2.262-2.059,3.871
		c0,2.576,2.096,4.672,4.671,4.672h24.516h0.001h1.296c0.441-0.003,0.799-0.363,0.797-0.804s-0.36-0.798-0.801-0.798
		c0,0-0.001,0-0.002,0h-0.853C28.779,28.175,28.777,25.756,29.984,23.896z M4.38,18.424c-0.441,0.003-0.798,0.363-0.796,0.804
		s0.361,0.798,0.8,0.798c0.001,0,0.002,0,0.002,0h23.143c0.086,0.781,0.295,1.545,0.632,2.269H5.031
		c-1.693,0-3.071-1.377-3.071-3.07s1.378-3.071,3.071-3.071h23.131c-0.337,0.724-0.546,1.49-0.632,2.271H4.38z M5.031,23.896h23.13
		c-0.337,0.724-0.546,1.489-0.632,2.271H4.381c-0.213,0.001-0.414,0.085-0.564,0.236c-0.151,0.152-0.233,0.354-0.232,0.567
		s0.085,0.414,0.237,0.565c0.15,0.149,0.35,0.231,0.561,0.231c0.001,0,0.003,0,0.004,0h23.142c0.086,0.781,0.295,1.546,0.632,2.27
		H5.031c-1.693,0-3.071-1.377-3.071-3.07S3.337,23.896,5.031,23.896L5.031,23.896z"/>
	<path d="M2.231,5.8l4.581,1.309v6.308c0,0.441,0.359,0.8,0.8,0.8c0.441,0,0.8-0.359,0.8-0.8V7.566l7.369,2.105
		c0.071,0.02,0.145,0.03,0.219,0.03H16c0.072,0,0.144-0.011,0.214-0.03l7.371-2.105v5.851c0,0.441,0.359,0.8,0.801,0.8
		c0.44,0,0.8-0.359,0.8-0.8V7.108l2.915-0.833v3.276c-0.756,0.315-1.289,1.061-1.289,1.929c0,1.153,0.938,2.091,2.091,2.091
		c1.151-0.001,2.089-0.939,2.091-2.091c0-0.869-0.534-1.615-1.291-1.93V5.818L29.769,5.8c0.263-0.077,0.466-0.28,0.542-0.542
		c0.125-0.423-0.119-0.869-0.543-0.994l-13.549-3.87c-0.144-0.041-0.295-0.041-0.439,0L2.23,4.264
		c-0.263,0.077-0.466,0.28-0.542,0.543C1.627,5.012,1.65,5.229,1.753,5.416S2.025,5.74,2.231,5.8z M5.362,5.031l10.637-3.039
		l10.637,3.039L15.999,8.07L5.362,5.031z M28.903,11.972c-0.271,0-0.49-0.22-0.49-0.491c0-0.26,0.203-0.473,0.459-0.489h0.031
		c0.27,0,0.49,0.22,0.49,0.489C29.394,11.751,29.174,11.972,28.903,11.972z"/>
</g>
</svg>
