<?xml version="1.0" encoding="utf-8"?>
<!-- Generator: Adobe Illustrator 23.0.6, SVG Export Plug-In . SVG Version: 6.00 Build 0)  -->
<svg height="32px" width="32px" version="1.1" id="Ebene_1" xmlns="http://www.w3.org/2000/svg" xmlns:xlink="http://www.w3.org/1999/xlink" x="0px" y="0px"
	 viewBox="0 0 47.9 42.1" style="enable-background:new 0 0 47.9 42.1;" xml:space="preserve">
<style type="text/css">
	.st0{fill:#F7BB3C;}
</style>
<g id="Gruppe_57" transform="translate(-34.727 715.285) rotate(180)">
	<path id="Pfad_14" class="st0" d="M-63.2,702.7c-2,4.7-5,9-8.8,12.6l-10.7-5.6c1.8-3.1,3.2-6.5,4.1-10c1-4,1.5-8,1.4-12.1v-14.3
		h17.5l-0.1,14.4C-59.7,692.8-60.9,698-63.2,702.7z M-36.6,697.6c-1.2,3.5-2.8,6.8-4.7,9.8c-1.8,2.9-4,5.5-6.4,7.8l-10.7-5.6
		c1.9-3.3,3.4-6.7,4.5-10.3c1.1-3.8,1.7-7.8,1.6-11.8v-14.3h17.5l-0.1,14.4C-34.8,691-35.4,694.4-36.6,697.6L-36.6,697.6z"/>
</g>
</svg>
