<?xml version="1.0" encoding="utf-8"?>
<!-- Generator: Adobe Illustrator 24.0.1, SVG Export Plug-In . SVG Version: 6.00 Build 0)  -->
<svg version="1.1" id="Ebene_1" xmlns="http://www.w3.org/2000/svg" xmlns:xlink="http://www.w3.org/1999/xlink" x="0px" y="0px"
	 width="32px" height="32px" viewBox="0 0 32 32" enable-background="new 0 0 32 32" xml:space="preserve">
<g id="Gruppe_49165" transform="translate(15501.5 19233.5)">
	<g transform="matrix(1, 0, 0, 1, -15501.5, -19233.5)">
		<circle id="Ellipse_92-2" fill="#e2e9ca" cx="16" cy="16" r="15.8"/>
	</g>
	<path id="Pfad_567" fill="#000000" d="M-15488.3-19216.7l1.8,3.9l0.5-1.4c-0.1-0.1-0.2-0.2-0.2-0.3l-0.3-0.8c0-0.2,0.2-0.4,0.5-0.4
		h1.1c0.2,0,0.5,0.2,0.5,0.4l-0.3,0.8c0,0.1-0.1,0.3-0.2,0.3l0.5,1.4l1.8-3.9c3.6,2.8,5.9-0.5,5.9,6.1c0,1.8-4.8,2.6-8.7,2.6h0
		c-4,0-8.7-0.9-8.7-2.6C-15494.3-19217.2-15491.9-19214-15488.3-19216.7z"/>
	<path id="Pfad_568" fill="#000000" d="M-15481-19221.7c-0.1,0.7-0.4,1.2-0.7,1.2c-0.7,1.9-2.1,3.6-3.8,3.6s-3.2-1.8-3.8-3.6
		c-0.3-0.1-0.5-0.6-0.7-1.2c-0.1-0.3-0.1-0.6,0-0.9h9.1C-15480.9-19222.3-15480.9-19222-15481-19221.7z"/>
	<path id="Pfad_569" fill="#000000" d="M-15480.9-19223.5h-9.2c-0.4,0-0.6-0.3-0.6-0.7c0-0.3,0.3-0.6,0.6-0.6h0.2
		c0-1.7,0.9-3.2,2.4-4l0.4,2.1c0,0.2,0.2,0.3,0.3,0.3c0,0,0,0,0.1,0c0.2,0,0.3-0.2,0.3-0.4l-0.4-2.4c0.2-0.3,0.4-0.4,0.8-0.4h1.3
		c0.3,0,0.6,0.2,0.8,0.4l-0.4,2.4c0,0.2,0.1,0.4,0.3,0.4c0,0,0,0,0.1,0c0.2,0,0.3-0.1,0.3-0.3l0.4-2.1c1.5,0.8,2.4,2.3,2.4,4h0.2
		c0.4,0,0.6,0.3,0.6,0.7C-15480.3-19223.8-15480.6-19223.5-15480.9-19223.5L-15480.9-19223.5z"/>
</g>
</svg>
